HIERARCHY
ROOT Hips
{
  OFFSET 279.157 85.6768 304.565
  CHANNELS 6 Xposition Yposition Zposition Zrotation Xrotation Yrotation
  JOINT LeftUpLeg
  {
    OFFSET 8.64259 1.95398 -2.38835
    CHANNELS 3 Zrotation Xrotation Yrotation
    JOINT LeftLeg
    {
      OFFSET 43.7702 0 0
      CHANNELS 3 Zrotation Xrotation Yrotation
      JOINT LeftFoot
      {
        OFFSET 40.6238 0 0
        CHANNELS 3 Zrotation Xrotation Yrotation
        JOINT LeftToeBase
        {
          OFFSET 12.7242 0 0
          CHANNELS 3 Zrotation Xrotation Yrotation
          End Site
          {
            OFFSET 0 0 0
          }
        }
      }
    }
  }
  JOINT RightUpLeg
  {
    OFFSET -8.2249 1.95398 -2.59336
    CHANNELS 3 Zrotation Xrotation Yrotation
    JOINT RightLeg
    {
      OFFSET 43.5653 0 0
      CHANNELS 3 Zrotation Xrotation Yrotation
      JOINT RightFoot
      {
        OFFSET 40.6238 0 0
        CHANNELS 3 Zrotation Xrotation Yrotation
        JOINT RightToeBase
        {
          OFFSET 12.7242 0 0
          CHANNELS 3 Zrotation Xrotation Yrotation
          End Site
          {
            OFFSET 0 0 0
          }
        }
      }
    }
  }
  JOINT Spine
  {
    OFFSET 0.165834 0.87714 6.61349
    CHANNELS 3 Zrotation Xrotation Yrotation
    JOINT Spine1
    {
      OFFSET 7.38963 1.71661e-005 0
      CHANNELS 3 Zrotation Xrotation Yrotation
      JOINT Spine2
      {
        OFFSET 11.9445 1.14441e-005 0
        CHANNELS 3 Zrotation Xrotation Yrotation
        JOINT Spine3
        {
          OFFSET 14.7254 4.19617e-005 0
          CHANNELS 3 Zrotation Xrotation Yrotation
          JOINT Spine4
          {
            OFFSET 10.9679 0 0
            CHANNELS 3 Zrotation Xrotation Yrotation
            JOINT RightShoulder
            {
              OFFSET 2.46616 -1.6653 3.69651
              CHANNELS 3 Zrotation Xrotation Yrotation
              JOINT RightArm
              {
                OFFSET 13.0012 0 0
                CHANNELS 3 Zrotation Xrotation Yrotation
                JOINT RightForeArm
                {
                  OFFSET 28.7848 1.52588e-005 0
                  CHANNELS 3 Zrotation Xrotation Yrotation
                  JOINT RightHand
                  {
                    OFFSET 26.5688 1.52588e-005 0
                    CHANNELS 3 Zrotation Xrotation Yrotation
                    End Site
                    {
                      OFFSET 0 0 0
                    }
                  }
                }
              }
            }
            JOINT LeftShoulder
            {
              OFFSET 2.38034 -1.29275 -3.7523
              CHANNELS 3 Zrotation Xrotation Yrotation
              JOINT LeftArm
              {
                OFFSET 16.3182 6.10351e-005 0
                CHANNELS 3 Zrotation Xrotation Yrotation
                JOINT LeftForeArm
                {
                  OFFSET 27.0901 0 0
                  CHANNELS 3 Zrotation Xrotation Yrotation
                  JOINT LeftHand
                  {
                    OFFSET 24.5451 1.52588e-005 0
                    CHANNELS 3 Zrotation Xrotation Yrotation
                    End Site
                    {
                      OFFSET 0 0 0
                    }
                  }
                }
              }
            }
            JOINT Neck
            {
              OFFSET 5.0226 -0.0266342 0
              CHANNELS 3 Zrotation Xrotation Yrotation
              JOINT Head
              {
                OFFSET 6.69364 2.86102e-005 0
                CHANNELS 3 Zrotation Xrotation Yrotation
                End Site
                {
                  OFFSET 0 0 0
                }
              }
            }
          }
        }
      }
    }
  }
}
MOTION
Frames:	7
Frame Time:	0.0416667
2.81542 98.5792 -312.354 116.736 -49.0576 111.191 -170.387 9.13 91.2218 -37.1491 60.7914 -9.37192 74.1544 18.4456 4.96778 18.332 -8.43285 7.57401 -148.604 -19.5168 134.86 37.5107 58.706 -39.9442 75.1749 -1.43201 0.946333 22.0952 0.525582 9.34031 -2.50025 8.68003 -89.6158 9.54251 -4.81177 1.12893 -2.1202 -4.75741 1.34006 -24.7271 -4.92808 -0.372936 -4.71442 -4.92807 -0.372937 88.3045 -32.8598 -108.922 42.97 -16.3766 -3.12619 3.30959 -26.7042 -16.9998 -25.4678 -0.793076 -7.87539 -86.8977 -51.318 83.592 -23.7119 7.00198 8.56637 3.22311 12.3269 -14.669 -1.1918 -0.123782 -7.59669 -4.95414 -1.87589 1.24507 -1.96024 -1.986 -1.14941 
3.02183 98.0766 -311.711 113.03 -50.6335 106.236 -171.294 11.2951 84.7399 -30.409 56.6929 -12.9575 73.0494 16.0976 4.43815 17.4463 -8.43372 6.07512 -152.244 -19.8204 130.178 31.9495 57.4564 -35.4367 76.1216 -1.48262 1.42875 23.755 0.329992 7.96316 -2.69288 8.60181 -89.7644 9.70053 -5.26179 0.885418 -1.96011 -5.21772 1.11675 -24.5811 -5.28392 -0.741473 -4.56849 -5.28391 -0.741476 85.8626 -30.008 -114.841 39.1117 -14.9813 -7.12509 3.95239 -24.1762 -15.6856 -25.2564 -0.518232 -8.60033 -88.2612 -56.9572 82.5424 -21.0633 7.63035 6.91791 2.34504 9.75268 -13.7223 -1.80334 -0.106481 -7.63724 -4.1727 -0.9434 6.78916 -0.151818 -1.68688 -2.94116 
3.66316 98.1081 -312.887 109.481 -59.6762 105.524 -175.26 16.0576 80.3096 -29.893 41.3587 -5.72406 72.0383 10.1495 1.75956 17.3391 -8.66121 6.48954 -164.673 -23.3178 117.038 7.82869 42.7568 -11.5854 78.7432 -4.46864 1.73663 25.9689 -0.243492 7.87116 -1.82583 8.24792 -90.1248 10.3817 -3.69435 0.0731405 -1.2845 -3.68755 0.235849 -23.8561 -3.54543 -1.04179 -3.84348 -3.54542 -1.0418 86.5265 -28.4114 -114.346 37.9634 -15.525 -10.3098 3.93901 -24.5991 -15.4271 -23.2069 -0.495159 -9.17093 -89.2267 -60.0874 81.7394 -20.1687 8.48105 7.11645 1.70262 7.9566 -13.9798 -2.16192 -0.0978502 -7.04672 -2.2622 -0.517865 9.9831 -1.04419 -1.74759 -4.77174 
3.99921 98.0813 -312.443 119.8 -71.0269 115.714 -177.964 16.788 78.5115 -29.0518 25.1003 -2.29625 67.5311 3.6878 0.21886 13.3693 -10.718 5.30999 -175.607 -28.8534 104.393 1.14264 23.2565 -2.53952 76.1007 -6.63072 1.63576 35.612 -2.94783 10.4367 -0.665834 8.1814 -89.9746 10.5126 -1.31453 0.167824 -1.15766 -1.30586 0.225521 -23.6987 -1.30418 -0.235091 -3.68601 -1.30418 -0.235088 86.5368 -28.2356 -114.414 38.662 -15.9024 -11.1295 3.96792 -23.551 -15.1514 -18.198 -0.474527 -9.73617 -89.4135 -61.0079 81.6451 -20.56 7.80478 8.74669 1.69131 6.78633 -13.7251 -2.7937 -0.079993 -7.15681 -1.78665 -0.035252 10.0774 -1.2818 -1.31608 -5.04415 
3.93085 98.9415 -309.129 142.807 -78.78 137.646 -178.802 15.7706 77.9368 -28.5745 17.2158 -1.58578 65.5617 1.98208 0.58362 10.3279 -12.9709 5.91656 175.861 -30.2393 94.1293 -2.92704 6.51496 -0.492646 67.9657 -4.71179 -0.778219 42.1255 -4.52564 6.76067 0.277895 8.06161 -89.7258 10.7491 0.679932 0.482588 -0.921777 0.700515 0.452187 -23.4571 0.503455 0.664617 -3.44446 0.503467 0.664625 88.1792 -27.6112 -111.42 41.6377 -16.6669 -11.2269 4.36203 -25.8052 -14.9122 -26.3853 -0.791821 -7.56365 -89.7021 -62.1822 81.4611 -19.1316 6.46551 4.47859 0.63015 7.90325 -5.13956 -2.42914 -0.0883125 -8.84395 -0.947512 -0.147077 10.5054 -2.18782 -1.51519 -6.19621 
3.9821 99.646 -305.028 -177.505 -82.0667 175.259 -178.598 13.1466 76.7426 -26.8195 9.87007 -2.39157 67.4931 3.66081 -0.374878 10.5553 -12.7347 5.73217 167.104 -23.5557 82.4499 -14.0144 -7.41819 0.643695 56.2009 1.54976 -1.30656 63.4957 -6.77159 24.0307 0.800609 7.87105 -89.3334 11.1217 1.90309 1.14184 -0.548321 1.95149 1.05695 -23.0867 1.47198 1.661 -3.07408 1.47198 1.661 87.1764 -28.511 -113.007 42.4758 -15.2985 -9.1602 4.62378 -31.7708 -14.8306 -24.4733 -0.875268 -9.15557 -89.8386 -61.7651 81.2102 -18.11 8.02987 5.57627 0.194038 3.30444 -8.6044 -2.70715 -0.0818942 -6.53431 -2.44742 -0.422535 8.40105 -1.68517 -1.42437 -4.7925 
4.15205 99.831 -301.459 -135.75 -80.4513 -144.217 -177.36 10.976 76.387 -25.7898 4.97078 -4.03079 69.143 5.01977 -0.467522 12.2432 -11.6141 5.70302 164.991 -12.0618 77.1989 -34.856 -14.7045 -1.35531 66.2382 -2.88825 5.33108 36.1851 -3.4059 11.1511 1.24142 7.78692 -89.1512 11.2817 2.86581 1.40652 -0.386727 2.92492 1.27895 -22.9337 2.31065 2.20295 -2.92104 2.31064 2.20294 87.2435 -28.3037 -112.972 42.5871 -16.1993 -7.28978 4.52736 -28.5354 -15.475 -24.9206 -0.593024 -9.61698 -90.1542 -61.4624 80.7411 -16.9813 8.36674 2.79783 0.239498 0.225447 -9.89598 -1.63836 -0.103992 -6.69114 -1.68037 -0.596148 7.39024 -1.96664 -1.51623 -4.12977 
